<svg id="4a362d94-1bf9-4d70-aa78-5574b9b48daf" data-name="85c1b3ad-9dce-41a7-853c-3904ad198ba9" xmlns="http://www.w3.org/2000/svg" width="182.24" height="167.44" viewBox="0 0 182.24 167.44"><title>creamNG-logo</title><path d="M76.23,60h61.93A8.78,8.78,0,0,1,147,68.8h0a8.78,8.78,0,0,1-8.79,8.79H76.23a8.79,8.79,0,0,1-8.8-8.79h0A8.79,8.79,0,0,1,76.23,60Z" transform="translate(-16.15 -14.01)" style="fill:#d769a8"/><path d="M87.36,37H127a8.79,8.79,0,0,1,8.8,8.79h0a8.79,8.79,0,0,1-8.8,8.79H87.36a8.79,8.79,0,0,1-8.79-8.79h0A8.79,8.79,0,0,1,87.36,37Z" transform="translate(-16.15 -14.01)" style="fill:#45abbc"/><path d="M112.7,31.59h-11a8.83,8.83,0,0,1-8.79-8.79h0c14.32-6.6,10.75-4.61,19.81-8.79h0a8.84,8.84,0,0,1,8.8,8.79h0A8.84,8.84,0,0,1,112.7,31.59Z" transform="translate(-16.15 -14.01)" style="fill:#ed9c21"/><path d="M141.15,84.27H73.23a6.11,6.11,0,0,0-6.1,6.11h0l7.33,43.27a6.11,6.11,0,0,0,6.11,6.11h53.25a6.12,6.12,0,0,0,6.26-5.95v-.16l7.33-43.27a6.11,6.11,0,0,0-6.1-6.11ZM118.65,110c-4.53,0-5.41-1.88-5.41-1.88a6.22,6.22,0,0,0-5.87-3.57,6.72,6.72,0,0,0-5.15,2.15,7.63,7.63,0,0,0-2,5.49,7.35,7.35,0,0,0,2,5.49,7,7,0,0,0,10,0,7.16,7.16,0,0,0,1.26-1.69s.58-1.77,5.11-1.77,5.37,1.77,5.37,1.77a17.78,17.78,0,0,1-4.87,8.87,16,16,0,0,1-11.52,4.3,16.61,16.61,0,0,1-12.21-4.88,16.44,16.44,0,0,1-5.15-12,16.63,16.63,0,0,1,5-12.25,16.84,16.84,0,0,1,12.36-5,16.29,16.29,0,0,1,12.06,4.87,18.36,18.36,0,0,1,4.45,8.3A6.84,6.84,0,0,1,118.65,110Z" transform="translate(-16.15 -14.01)" style="fill:#6cbe45"/><path d="M33.78,161.1a7.23,7.23,0,0,0-3.48-1,6.87,6.87,0,0,0-3.61,1,7,7,0,0,0-2.56,2.73,8.44,8.44,0,0,0,0,7.74,7,7,0,0,0,2.56,2.73,6.78,6.78,0,0,0,3.61,1,7.85,7.85,0,0,0,3.36-.82,10.6,10.6,0,0,0,3.14-2.24l4,4.3a16,16,0,0,1-5.07,3.57,14.08,14.08,0,0,1-12.85-.45,13.13,13.13,0,0,1-4.94-4.9,13.73,13.73,0,0,1-1.79-7A13.06,13.06,0,0,1,23,156.06a14.87,14.87,0,0,1,12.92-.54,14.32,14.32,0,0,1,4.82,3.31l-4,4.79A9.73,9.73,0,0,0,33.78,161.1Z" transform="translate(-16.15 -14.01)" style="fill:#45abbc"/><path d="M53.09,161.42a7.61,7.61,0,0,1,3.79-.94v6.09h-1a6.16,6.16,0,0,0-3.81,1.1,4.24,4.24,0,0,0-1.68,3V181H43.72V160.74h6.66v3.36A7.33,7.33,0,0,1,53.09,161.42Z" transform="translate(-16.15 -14.01)" style="fill:#45abbc"/><path d="M74.6,173.71l3.74,3.36a11.57,11.57,0,0,1-9.27,4.11,12.33,12.33,0,0,1-5.72-1.27,9.33,9.33,0,0,1-3.83-3.59A10.4,10.4,0,0,1,58.15,171a11.07,11.07,0,0,1,1.31-5.46,9.17,9.17,0,0,1,3.72-3.66,11.56,11.56,0,0,1,5.59-1.31A11.24,11.24,0,0,1,74,161.73a8.69,8.69,0,0,1,3.53,3.35,10.38,10.38,0,0,1,1.33,5.08l-13.51,3.26a4.54,4.54,0,0,0,1.65,2,4.4,4.4,0,0,0,2.54.73A6.79,6.79,0,0,0,74.6,173.71Zm-8.51-7.31a5.26,5.26,0,0,0-1.21,3.35l7.51-1.87a3.69,3.69,0,0,0-1.23-2,3.32,3.32,0,0,0-2.13-.67,3.79,3.79,0,0,0-2.93,1.2Z" transform="translate(-16.15 -14.01)" style="fill:#45abbc"/><path d="M102.45,160.74V181H95.8v-2.55a7.15,7.15,0,0,1-2.56,2.07,7.6,7.6,0,0,1-3.38.73,9.27,9.27,0,0,1-5-1.31,8.79,8.79,0,0,1-3.31-3.68,12.22,12.22,0,0,1-1.18-5.48,11.91,11.91,0,0,1,1.16-5.38,8.43,8.43,0,0,1,3.33-3.59,9.42,9.42,0,0,1,4.94-1.27,7.67,7.67,0,0,1,3.4.75,7.27,7.27,0,0,1,2.58,2.09v-2.62Zm-8,14.06a5.09,5.09,0,0,0,1.35-3.18v-1.34a5.11,5.11,0,0,0-1.35-3.18,3.92,3.92,0,0,0-3-1.2,4,4,0,0,0-3.16,1.4,6.24,6.24,0,0,0,0,7.33,4,4,0,0,0,3.16,1.4A3.93,3.93,0,0,0,94.45,174.8Z" transform="translate(-16.15 -14.01)" style="fill:#45abbc"/><path d="M139.8,162.57a7.88,7.88,0,0,1,2,5.65V181h-6.65V170.13a3.89,3.89,0,0,0-.9-2.71,3.13,3.13,0,0,0-2.43-1,3.53,3.53,0,0,0-2.79,1.29,5,5,0,0,0-1,3.27v10h-6.65V170.13a3.89,3.89,0,0,0-.9-2.71,3.13,3.13,0,0,0-2.43-1,3.56,3.56,0,0,0-2.8,1.29,5,5,0,0,0-1,3.27v10h-6.62V160.74h6.62v3.33a7.1,7.1,0,0,1,2.63-2.67,7.89,7.89,0,0,1,3.87-.92,7.33,7.33,0,0,1,4.22,1.2,6.54,6.54,0,0,1,2.5,3.33,7.27,7.27,0,0,1,2.79-3.38,7.86,7.86,0,0,1,4.28-1.14A6.92,6.92,0,0,1,139.8,162.57Z" transform="translate(-16.15 -14.01)" style="fill:#45abbc"/><path d="M166,155.55a8.12,8.12,0,0,1,3.16,3.36,10.83,10.83,0,0,1,1.12,5V181h-7V165.6a5.15,5.15,0,0,0-1.22-3.62,4.34,4.34,0,0,0-3.36-1.38,5.21,5.21,0,0,0-4,1.64,5.84,5.84,0,0,0-1.55,4.15V181H146.3V154.76h6.84v3.81a9.27,9.27,0,0,1,3.46-3.12,10.09,10.09,0,0,1,4.73-1.1A9,9,0,0,1,166,155.55Z" transform="translate(-16.15 -14.01)" style="fill:#45abbc"/><path d="M192.22,167.36h5.91V181h-5v-1.77a13.26,13.26,0,0,1-3.2,1.64,10.22,10.22,0,0,1-3.42.6,13.06,13.06,0,0,1-6.77-1.78,12.84,12.84,0,0,1-4.86-4.87,14,14,0,0,1-1.74-7,13.06,13.06,0,0,1,7-11.74,15.28,15.28,0,0,1,7.35-1.76,17.15,17.15,0,0,1,5.89,1.07,15.56,15.56,0,0,1,5,2.86L194.5,163a11,11,0,0,0-3.25-2.13,9.22,9.22,0,0,0-3.66-.79,7.25,7.25,0,0,0-6.43,3.78,8.06,8.06,0,0,0-1,3.93,8.54,8.54,0,0,0,.92,4,7,7,0,0,0,2.52,2.79,6.6,6.6,0,0,0,3.59,1,6.27,6.27,0,0,0,2.73-.62,7,7,0,0,0,2.24-1.66Z" transform="translate(-16.15 -14.01)" style="fill:#45abbc"/></svg>