<svg id="7a7607df-94c0-45df-92e5-7adeb7d14d1b" data-name="85c1b3ad-9dce-41a7-853c-3904ad198ba9" xmlns="http://www.w3.org/2000/svg" width="139.24" height="41.15" viewBox="0 0 139.24 41.15"><title>creamNG-logo-sml</title><path d="M3,15.05H23.24a2.88,2.88,0,0,1,2.88,2.88h0a2.88,2.88,0,0,1-2.88,2.88H3A2.88,2.88,0,0,1,.1,17.93h0A2.88,2.88,0,0,1,3,15.05Z" style="fill:#d769a8"/><path d="M6.62,7.53h13a2.87,2.87,0,0,1,2.88,2.87h0a2.88,2.88,0,0,1-2.88,2.88h-13A2.88,2.88,0,0,1,3.74,10.4h0A2.87,2.87,0,0,1,6.62,7.53Z" style="fill:#45abbc"/><path d="M14.91,5.75h-3.6A2.89,2.89,0,0,1,8.43,2.88h0C13.12.72,12,1.37,14.91,0h0a2.89,2.89,0,0,1,2.88,2.88h0A2.89,2.89,0,0,1,14.91,5.75Z" style="fill:#ed9c21"/><path d="M24.22,23H2a2,2,0,0,0-2,2H0L2.4,39.15a2,2,0,0,0,2,2H21.82a2,2,0,0,0,2.05-1.95v-.05L26.27,25a2,2,0,0,0-2-2Zm-7.36,8.42c-1.48,0-1.77-.61-1.77-.61a2,2,0,0,0-1.92-1.17,2.21,2.21,0,0,0-1.69.7,2.49,2.49,0,0,0-.66,1.8,2.38,2.38,0,0,0,.66,1.79,2.19,2.19,0,0,0,1.65.68,2.14,2.14,0,0,0,1.61-.68,2.46,2.46,0,0,0,.41-.55s.19-.58,1.67-.58,1.76.58,1.76.58A5.82,5.82,0,0,1,17,36.27a5.26,5.26,0,0,1-3.77,1.41,5.44,5.44,0,0,1-4-1.6,5.37,5.37,0,0,1-1.68-3.94,5.57,5.57,0,0,1,5.68-5.64,5.32,5.32,0,0,1,3.94,1.59,6,6,0,0,1,1.46,2.72A2.27,2.27,0,0,1,16.86,31.41Z" style="fill:#6cbe45"/><path d="M48,28.32a4,4,0,0,0-1.93-.56,3.8,3.8,0,0,0-2,.56,3.89,3.89,0,0,0-1.42,1.51,4.68,4.68,0,0,0,0,4.29,4,4,0,0,0,1.42,1.51,3.7,3.7,0,0,0,2,.55A4.28,4.28,0,0,0,48,35.73a5.77,5.77,0,0,0,1.74-1.24l2.22,2.38a8.91,8.91,0,0,1-2.81,2A7.78,7.78,0,0,1,42,38.6a7.27,7.27,0,0,1-2.74-2.71,7.63,7.63,0,0,1-1-3.88,7.26,7.26,0,0,1,3.8-6.49,8.25,8.25,0,0,1,7.16-.29,7.91,7.91,0,0,1,2.67,1.83l-2.22,2.65A5.47,5.47,0,0,0,48,28.32Z" style="fill:#45abbc"/><path d="M58.74,28.49a4.25,4.25,0,0,1,2.1-.52v3.38h-.56a3.39,3.39,0,0,0-2.11.61,2.33,2.33,0,0,0-.93,1.66v5.71h-3.7V28.12h3.69V30A4.07,4.07,0,0,1,58.74,28.49Z" style="fill:#45abbc"/><path d="M70.65,35.3l2.08,1.87a6.46,6.46,0,0,1-5.14,2.27,6.83,6.83,0,0,1-3.17-.7,5.21,5.21,0,0,1-2.12-2,5.69,5.69,0,0,1-.76-3,6.13,6.13,0,0,1,.73-3,5,5,0,0,1,2.06-2A6.4,6.4,0,0,1,67.42,28a6.24,6.24,0,0,1,2.91.66,4.72,4.72,0,0,1,2,1.85A5.9,5.9,0,0,1,73,33.34l-7.49,1.8a2.54,2.54,0,0,0,.91,1.11,2.45,2.45,0,0,0,1.41.41A3.74,3.74,0,0,0,70.65,35.3Zm-4.71-4a3,3,0,0,0-.67,1.86l4.16-1a2,2,0,0,0-.68-1.1,1.87,1.87,0,0,0-1.18-.38,2.14,2.14,0,0,0-1.63.67Z" style="fill:#45abbc"/><path d="M86.08,28.12V39.33H82.4V37.92A4,4,0,0,1,81,39.07a4.28,4.28,0,0,1-1.87.4,5.15,5.15,0,0,1-2.76-.73,4.85,4.85,0,0,1-1.83-2,7.29,7.29,0,0,1,0-6,4.74,4.74,0,0,1,1.85-2,5.16,5.16,0,0,1,2.74-.7,4.22,4.22,0,0,1,1.88.41,4,4,0,0,1,1.43,1.16V28.12Zm-4.43,7.79a2.83,2.83,0,0,0,.75-1.76V33.4a2.83,2.83,0,0,0-.75-1.76A2.16,2.16,0,0,0,80,31a2.2,2.2,0,0,0-1.75.77,3.45,3.45,0,0,0,0,4.06,2.23,2.23,0,0,0,1.75.78A2.15,2.15,0,0,0,81.65,35.91Z" style="fill:#45abbc"/><path d="M106.78,29.13a4.39,4.39,0,0,1,1.11,3.13v7.07H104.2v-6a2.15,2.15,0,0,0-.5-1.5,1.7,1.7,0,0,0-1.34-.56,2,2,0,0,0-1.55.72,2.74,2.74,0,0,0-.55,1.81v5.54H96.57v-6a2.15,2.15,0,0,0-.5-1.5,1.7,1.7,0,0,0-1.34-.56,2,2,0,0,0-1.55.72,2.69,2.69,0,0,0-.56,1.81v5.54H89V28.12h3.67V30a4.06,4.06,0,0,1,1.46-1.48A4.44,4.44,0,0,1,96.22,28a4,4,0,0,1,2.34.67A3.64,3.64,0,0,1,100,30.48a4.08,4.08,0,0,1,1.54-1.87,4.41,4.41,0,0,1,2.37-.63A3.83,3.83,0,0,1,106.78,29.13Z" style="fill:#45abbc"/><path d="M121.29,25.24A4.54,4.54,0,0,1,123,27.1a5.91,5.91,0,0,1,.62,2.77v9.46h-3.88V30.81a2.88,2.88,0,0,0-.67-2,2.42,2.42,0,0,0-1.87-.76A2.89,2.89,0,0,0,115,29a3.21,3.21,0,0,0-.86,2.3v8.08h-3.79V24.8h3.79v2.12a5,5,0,0,1,1.92-1.73,5.43,5.43,0,0,1,2.62-.61A5,5,0,0,1,121.29,25.24Z" style="fill:#45abbc"/><path d="M135.82,31.79h3.28v7.54h-2.77v-1a7.48,7.48,0,0,1-1.78.91,5.57,5.57,0,0,1-1.89.33,7.25,7.25,0,0,1-3.75-1,7.14,7.14,0,0,1-2.7-2.7,7.86,7.86,0,0,1-1-3.88,7.13,7.13,0,0,1,1-3.82,7.27,7.27,0,0,1,2.84-2.69,8.52,8.52,0,0,1,4.08-1,9.31,9.31,0,0,1,3.26.59,8.62,8.62,0,0,1,2.77,1.59l-2.16,2.65a5.85,5.85,0,0,0-1.8-1.18,5.16,5.16,0,0,0-2-.44,4,4,0,0,0-3.57,2.1,4.43,4.43,0,0,0-.55,2.17,4.76,4.76,0,0,0,.51,2.22,3.94,3.94,0,0,0,1.4,1.55,3.63,3.63,0,0,0,2,.55,3.59,3.59,0,0,0,1.52-.34,4,4,0,0,0,1.24-.92Z" style="fill:#45abbc"/></svg>