<?xml version="1.0" encoding="utf-8"?>
<!-- Generator: Adobe Illustrator 22.0.1, SVG Export Plug-In . SVG Version: 6.00 Build 0)  -->
<svg version="1.1" id="_x37_a7607df-94c0-45df-92e5-7adeb7d14d1b"
	 xmlns="http://www.w3.org/2000/svg" xmlns:xlink="http://www.w3.org/1999/xlink" x="0px" y="0px" viewBox="0 0 20 31.3"
	 style="enable-background:new 0 0 20 31.3;" xml:space="preserve">
<style type="text/css">
	.st0{fill:#333333;}
</style>
<title>creamNG-logo-sml</title>
<g>
	<path class="st0" d="M2.3,15.9h15.4c1.2,0,2.2-1,2.2-2.2c0-1.2-1-2.2-2.2-2.2H2.3c0,0,0,0,0,0c-1.2,0-2.2,1-2.2,2.2c0,0,0,0,0,0
		C0.1,14.9,1.1,15.9,2.3,15.9z"/>
	<path class="st0" d="M5,10.1h9.9c1.2,0,2.2-1,2.2-2.2c0,0,0,0,0,0c0-1.2-1-2.2-2.2-2.2H5c0,0,0,0,0,0c-1.2,0-2.2,1-2.2,2.2
		C2.8,9.1,3.8,10.1,5,10.1z"/>
	<path class="st0" d="M8.6,4.4h2.7c1.2,0,2.2-1,2.2-2.2c0-1.2-1-2.2-2.2-2.2C9.1,1,10,0.5,6.4,2.2C6.4,3.4,7.4,4.4,8.6,4.4z"/>
	<path class="st0" d="M18.5,17.5L18.5,17.5h-17C0.7,17.5,0,18.2,0,19l1.8,10.8c0,0.8,0.7,1.5,1.5,1.5h13.3c0.8,0,1.5-0.6,1.6-1.5
		c0,0,0,0,0,0v0L20,19C20,18.2,19.3,17.5,18.5,17.5z M8.7,25.8c0.3,0.3,0.8,0.5,1.3,0.5c0.5,0,0.9-0.2,1.2-0.5
		c0.1-0.1,0.2-0.3,0.3-0.4c0,0,0.1-0.4,1.3-0.4s1.3,0.4,1.3,0.4c-0.2,0.8-0.6,1.6-1.2,2.2c-0.8,0.7-1.8,1.1-2.9,1.1
		c-1.1,0-2.2-0.4-3-1.2c-0.8-0.8-1.3-1.9-1.3-3c0-2.3,1.8-4.3,4.2-4.3c0,0,0.1,0,0.1,0c1.1,0,2.2,0.4,3,1.2c0.5,0.6,0.9,1.3,1.1,2.1
		c-0.4,0.3-0.9,0.5-1.3,0.5v0c-1.1,0-1.3-0.5-1.3-0.5c-0.3-0.6-0.8-0.9-1.5-0.9c-0.5,0-1,0.2-1.3,0.5c-0.3,0.4-0.5,0.9-0.5,1.4
		C8.2,25,8.4,25.5,8.7,25.8z"/>
</g>
</svg>
